<svg xmlns="http://www.w3.org/2000/svg" viewBox="0 0 200 200">
  <defs>
    <radialGradient id="g" cx="45%" cy="40%" r="55%">
      <stop offset="0%" stop-color="#d4e8dc"/>
      <stop offset="60%" stop-color="#a8c8b4"/>
      <stop offset="100%" stop-color="#7ea892"/>
    </radialGradient>
  </defs>
  <path d="M100 18 C120 18 148 30 155 55 C162 80 158 100 150 115 C142 130 130 148 120 162 C110 176 105 182 100 182 C95 182 90 176 80 162 C70 148 58 130 50 115 C42 100 38 80 45 55 C52 30 80 18 100 18Z" fill="url(#g)" stroke="#5a8a72" stroke-width="1.5"/>
  <circle cx="100" cy="38" r="6" fill="#5a8a72" fill-opacity="0.3"/>
  <path d="M75 70 Q85 60 95 72 Q100 78 105 72 Q115 60 125 70" fill="none" stroke="#5a8a72" stroke-width="1.2" stroke-opacity="0.5"/>
  <path d="M70 100 Q80 90 90 102 Q100 110 110 102 Q120 90 130 100" fill="none" stroke="#5a8a72" stroke-width="1.2" stroke-opacity="0.5"/>
  <path d="M78 130 Q88 122 98 132 Q104 138 110 132 Q118 122 128 130" fill="none" stroke="#5a8a72" stroke-width="1" stroke-opacity="0.35"/>
</svg>
