<svg xmlns="http://www.w3.org/2000/svg" viewBox="0 0 200 200">
  <defs>
    <radialGradient id="g" cx="45%" cy="40%" r="55%">
      <stop offset="0%" stop-color="#e8c8b0"/>
      <stop offset="50%" stop-color="#d0a888"/>
      <stop offset="100%" stop-color="#b08868"/>
    </radialGradient>
  </defs>
  <rect x="48" y="30" width="104" height="140" rx="8" fill="url(#g)" stroke="#8a6048" stroke-width="1.5"/>
  <rect x="56" y="38" width="88" height="124" rx="5" fill="none" stroke="#8a6048" stroke-width="0.6" stroke-opacity="0.35"/>
  <circle cx="100" cy="52" r="5" fill="#8a6048" fill-opacity="0.2"/>
  <path d="M68 78 Q78 70 88 80 Q94 86 100 80 Q106 86 112 80 Q122 70 132 78" fill="none" stroke="#8a6048" stroke-width="1" stroke-opacity="0.45"/>
  <path d="M68 110 Q78 102 88 112 Q94 118 100 112 Q106 118 112 112 Q122 102 132 110" fill="none" stroke="#8a6048" stroke-width="1" stroke-opacity="0.45"/>
  <path d="M72 140 Q82 134 92 142 Q97 146 102 142 Q112 134 122 140" fill="none" stroke="#8a6048" stroke-width="0.8" stroke-opacity="0.3"/>
</svg>
